<svg width="14" height="7" viewBox="0 0 14 7" fill="none" xmlns="http://www.w3.org/2000/svg">
<path d="M7 5.20551L1.34193 0.217997C1.26813 0.148118 1.18051 0.092873 1.08414 0.0554585C0.987773 0.0180444 0.884571 -0.00079731 0.780508 2.61919e-05C0.676444 0.000849694 0.573586 0.0213213 0.477884 0.060255C0.382182 0.0991893 0.295538 0.155813 0.222964 0.22685C0.15039 0.297888 0.0933292 0.381927 0.0550821 0.474106C0.0168351 0.566286 -0.00183834 0.664775 0.000142614 0.763874C0.00212357 0.862972 0.0247195 0.960711 0.0666228 1.05144C0.108526 1.14216 0.168905 1.22407 0.244265 1.29243L6.45117 6.78767C6.5981 6.92382 6.795 7 7 7C7.205 7 7.4019 6.92382 7.54883 6.78767L13.7557 1.29243C13.8311 1.22407 13.8915 1.14216 13.9334 1.05144C13.9753 0.960711 13.9979 0.862971 13.9999 0.763873C14.0018 0.664775 13.9832 0.566285 13.9449 0.474106C13.9067 0.381926 13.8496 0.297887 13.777 0.22685C13.7045 0.155813 13.6178 0.0991887 13.5221 0.0602545C13.4264 0.0213207 13.3236 0.000849141 13.2195 2.56482e-05C13.1154 -0.000797845 13.0122 0.0180439 12.9159 0.055458C12.8195 0.0928725 12.7319 0.148118 12.6581 0.217997L7 5.20551Z" fill="#262626"/>
</svg>
