<svg width="12" height="8" viewBox="0 0 12 8" fill="none" xmlns="http://www.w3.org/2000/svg">
<path d="M11.3536 4.35355C11.5488 4.15829 11.5488 3.84171 11.3536 3.64645L8.17157 0.464466C7.97631 0.269204 7.65973 0.269204 7.46447 0.464466C7.2692 0.659728 7.2692 0.97631 7.46447 1.17157L10.2929 4L7.46447 6.82843C7.2692 7.02369 7.2692 7.34027 7.46447 7.53553C7.65973 7.7308 7.97631 7.7308 8.17157 7.53553L11.3536 4.35355ZM0.999999 3.5C0.723857 3.5 0.499999 3.72386 0.499999 4C0.499999 4.27614 0.723857 4.5 0.999999 4.5L0.999999 3.5ZM11 4L11 3.5L0.999999 3.5L0.999999 4L0.999999 4.5L11 4.5L11 4Z" fill="white"/>
</svg>