<svg width="4" height="9" viewBox="0 0 4 9" fill="none" xmlns="http://www.w3.org/2000/svg">
<path d="M2.97458 4.5L0.124569 7.73318C0.0846379 7.77535 0.0530694 7.82542 0.0316897 7.88049C0.01031 7.93556 -0.000456766 7.99453 1.38673e-05 8.054C0.000484262 8.11346 0.0121825 8.17224 0.0344305 8.22692C0.0566786 8.28161 0.089035 8.33112 0.129628 8.37259C0.17022 8.41406 0.218243 8.44667 0.270917 8.46852C0.323591 8.49038 0.379871 8.50105 0.436498 8.49992C0.493126 8.49879 0.548977 8.48587 0.600821 8.46193C0.652664 8.43798 0.699469 8.40348 0.738529 8.36042L3.87867 4.81362C3.95647 4.72966 4 4.61714 4 4.5C4 4.38286 3.95647 4.27034 3.87867 4.18638L0.73853 0.639579C0.69947 0.596517 0.652665 0.562015 0.600821 0.53807C0.548978 0.514126 0.493126 0.501214 0.436499 0.500082C0.379871 0.49895 0.323592 0.50962 0.270918 0.531476C0.218244 0.553331 0.170221 0.585937 0.129628 0.627408C0.0890357 0.668878 0.0566792 0.71839 0.0344312 0.773077C0.0121831 0.827763 0.000484894 0.88654 1.44887e-05 0.946005C-0.000456155 1.00547 0.0103106 1.06444 0.0316903 1.11951C0.05307 1.17458 0.0846385 1.22465 0.12457 1.26682L2.97458 4.5Z" fill="#DA3241"/>
</svg>
