<svg width="14" height="14" viewBox="0 0 14 14" fill="none" xmlns="http://www.w3.org/2000/svg">
<g clip-path="url(#clip0_900_3241)">
<path d="M4.24447 7.72883H4.87777V6.08177H5.89071C6.07079 6.08177 6.22149 6.0211 6.34283 5.89977C6.46416 5.77788 6.52483 5.62745 6.52483 5.44847V4.43471C6.52483 4.25518 6.46416 4.10475 6.34283 3.98341C6.22149 3.86208 6.07106 3.80141 5.89153 3.80141H4.24447V7.72883ZM4.87777 5.44765V4.43471H5.89071V5.44765H4.87777ZM7.38047 7.72883H8.96412C9.14365 7.72883 9.29408 7.66816 9.41541 7.54682C9.5362 7.42494 9.59659 7.27451 9.59659 7.09553V4.43471C9.59659 4.25518 9.5362 4.10475 9.41541 3.98341C9.29408 3.86208 9.14365 3.80141 8.96412 3.80141H7.38047V7.72883ZM8.01377 7.09471V4.43471H8.96412V7.09471H8.01377ZM10.6112 7.72883H11.2445V6.08177H12.3851V5.44765H11.2445V4.43471H12.3851V3.80059H10.6112V7.72883ZM3.80059 11.5294C3.42177 11.5294 3.10553 11.4026 2.85188 11.1489C2.59824 10.8953 2.47114 10.5788 2.47059 10.1994V1.33C2.47059 0.951178 2.59769 0.634668 2.85188 0.380472C3.10608 0.126276 3.42259 -0.000547245 3.80141 1.77485e-06H12.67C13.0488 1.77485e-06 13.3653 0.126825 13.6195 0.380472C13.8737 0.634119 14.0006 0.950629 14 1.33V10.1994C14 10.5782 13.8732 10.8945 13.6195 11.1481C13.3659 11.4018 13.0491 11.5289 12.6692 11.5294H3.80059ZM1.33247 14C0.952002 14 0.634668 13.8732 0.380472 13.6195C0.126276 13.3659 -0.000547245 13.0486 1.77485e-06 12.6675V2.97788H0.823531V12.67C0.823531 12.7963 0.876237 12.9124 0.981649 13.0184C1.08706 13.1243 1.20318 13.177 1.33 13.1765H11.0229V14H1.33247Z" fill="#DA3241"/>
</g>
<defs>
<clipPath id="clip0_900_3241">
<rect width="14" height="14" fill="white"/>
</clipPath>
</defs>
</svg>
