<svg width="30" height="30" viewBox="0 0 30 30" fill="none" xmlns="http://www.w3.org/2000/svg">
<circle cx="15" cy="15" r="15" fill="#43C6FA"/>
<path d="M20.3536 15.3536C20.5488 15.1583 20.5488 14.8417 20.3536 14.6464L17.1716 11.4645C16.9763 11.2692 16.6597 11.2692 16.4645 11.4645C16.2692 11.6597 16.2692 11.9763 16.4645 12.1716L19.2929 15L16.4645 17.8284C16.2692 18.0237 16.2692 18.3403 16.4645 18.5355C16.6597 18.7308 16.9763 18.7308 17.1716 18.5355L20.3536 15.3536ZM10 14.5C9.72386 14.5 9.5 14.7239 9.5 15C9.5 15.2761 9.72386 15.5 10 15.5L10 14.5ZM20 15L20 14.5L10 14.5L10 15L10 15.5L20 15.5L20 15Z" fill="white"/>
</svg>
