<svg width="560" height="106" viewBox="0 0 560 106" fill="none" xmlns="http://www.w3.org/2000/svg">
<g clip-path="url(#clip0_963_2606)">
<mask id="mask0_963_2606" style="mask-type:alpha" maskUnits="userSpaceOnUse" x="-32" y="63" width="592" height="43">
<path d="M554 68C549.5 63.5 536.768 63.5 536.768 63.5H-32V106H560V82C557.5 80.3333 552.25 77 551.5 75.5C550.75 74 552 71 552 71C552 71 552.5 69 554 68Z" fill="#43C6FA"/>
</mask>
<g mask="url(#mask0_963_2606)">
<path d="M-30.5 65H553.5L556.5 78H-30.5V65Z" fill="url(#paint0_linear_963_2606)"/>
</g>
<circle cx="469" cy="6" r="6" fill="#43C6FA"/>
<path opacity="0.5" d="M415.38 88.01H-12.01L-14 93.39H413.4L415.38 88.01Z" fill="url(#paint1_linear_963_2606)"/>
</g>
<defs>
<linearGradient id="paint0_linear_963_2606" x1="-30.5" y1="71.5" x2="578.981" y2="71.5" gradientUnits="userSpaceOnUse">
<stop stop-color="#45D0FF" stop-opacity="0.2"/>
<stop offset="1" stop-color="#45D0FF"/>
</linearGradient>
<linearGradient id="paint1_linear_963_2606" x1="-14" y1="90.7" x2="431.824" y2="90.7" gradientUnits="userSpaceOnUse">
<stop stop-color="#45D0FF" stop-opacity="0.2"/>
<stop offset="1" stop-color="#45D0FF"/>
</linearGradient>
<clipPath id="clip0_963_2606">
<rect width="560" height="106" fill="white"/>
</clipPath>
</defs>
</svg>
