<svg width="215" height="47" viewBox="0 0 215 47" fill="none" xmlns="http://www.w3.org/2000/svg">
<path d="M24.7 40.02C27.17 40.02 29.3258 39.6842 31.1675 39.0125C33.0308 38.3192 34.385 37.6367 35.23 36.965L38.155 42.815C37.18 43.6817 35.4792 44.5592 33.0525 45.4475C30.6258 46.3358 27.7225 46.78 24.3425 46.78C21.1792 46.78 18.2325 46.2167 15.5025 45.09C12.7725 43.9633 10.3783 42.4033 8.32 40.41C6.26167 38.395 4.65833 36.0442 3.51 33.3575C2.36167 30.6708 1.7875 27.7567 1.7875 24.615C1.7875 21.4733 2.36167 18.5483 3.51 15.84C4.65833 13.1317 6.25083 10.77 8.2875 8.755C10.3458 6.74 12.74 5.16916 15.47 4.0425C18.2217 2.89416 21.1792 2.32 24.3425 2.32C27.7225 2.32 30.6258 2.76416 33.0525 3.6525C35.4792 4.54083 37.18 5.41833 38.155 6.285L35.23 12.135C34.385 11.4633 33.0308 10.7917 31.1675 10.12C29.3258 9.42666 27.17 9.08 24.7 9.08C22.36 9.08 20.2367 9.47 18.33 10.25C16.4233 11.03 14.7875 12.1242 13.4225 13.5325C12.0575 14.9408 11.0067 16.5875 10.27 18.4725C9.53333 20.3358 9.165 22.3508 9.165 24.5175C9.165 26.7058 9.53333 28.7425 10.27 30.6275C11.0067 32.5125 12.0575 34.1592 13.4225 35.5675C14.7875 36.9758 16.4233 38.07 18.33 38.85C20.2367 39.63 22.36 40.02 24.7 40.02ZM57.2482 46.78C54.4532 46.78 51.9616 46.1733 49.7732 44.96C47.6066 43.725 45.9057 42.0567 44.6707 39.955C43.4357 37.8317 42.8182 35.4267 42.8182 32.74C42.8182 30.0533 43.4357 27.6375 44.6707 25.4925C45.9057 23.3475 47.6066 21.6575 49.7732 20.4225C51.9616 19.1658 54.4532 18.5375 57.2482 18.5375C60.0432 18.5375 62.5132 19.1658 64.6582 20.4225C66.8032 21.6575 68.4824 23.3475 69.6957 25.4925C70.9307 27.6375 71.5482 30.0533 71.5482 32.74C71.5482 35.4267 70.9307 37.8317 69.6957 39.955C68.4824 42.0567 66.8032 43.725 64.6582 44.96C62.5132 46.1733 60.0432 46.78 57.2482 46.78ZM57.2482 40.93C58.8082 40.93 60.1624 40.5725 61.3107 39.8575C62.4591 39.1425 63.3474 38.1675 63.9757 36.9325C64.6041 35.6975 64.9182 34.2892 64.9182 32.7075C64.9182 31.1258 64.6041 29.7175 63.9757 28.4825C63.3474 27.2258 62.4591 26.2292 61.3107 25.4925C60.1624 24.7558 58.8082 24.3875 57.2482 24.3875C55.6882 24.3875 54.3232 24.7558 53.1532 25.4925C52.0049 26.2292 51.1057 27.2258 50.4557 28.4825C49.8274 29.7175 49.5132 31.1258 49.5132 32.7075C49.5132 34.2892 49.8274 35.6975 50.4557 36.9325C51.1057 38.1675 52.0049 39.1425 53.1532 39.8575C54.3232 40.5725 55.6882 40.93 57.2482 40.93ZM93.3791 18.5375C95.1774 18.5375 96.9216 18.9058 98.6116 19.6425C100.302 20.3792 101.688 21.56 102.772 23.185C103.877 24.7883 104.429 26.8792 104.429 29.4575V46H97.4416V30.725C97.4416 28.32 96.8674 26.5542 95.7191 25.4275C94.5924 24.2792 93.1299 23.705 91.3316 23.705C90.1399 23.705 89.0024 24.0408 87.9191 24.7125C86.8358 25.3842 85.9474 26.2942 85.2541 27.4425C84.5824 28.5908 84.2466 29.9125 84.2466 31.4075V46H77.2916V19.3175H84.2466V23.8025C84.4416 23.0658 84.9616 22.2967 85.8066 21.495C86.6733 20.6717 87.7674 19.9783 89.0891 19.415C90.4108 18.83 91.8408 18.5375 93.3791 18.5375ZM109.107 19.3175H114.112V8.365H121.002V19.3175H127.599V25.1675H121.002V36.575C121.002 38.005 121.24 39.0775 121.717 39.7925C122.215 40.5075 122.919 40.865 123.829 40.865C124.587 40.865 125.183 40.7242 125.617 40.4425C126.072 40.1608 126.342 39.9658 126.429 39.8575L128.997 44.895C128.867 45.025 128.487 45.2417 127.859 45.545C127.231 45.8483 126.418 46.13 125.422 46.39C124.425 46.65 123.287 46.78 122.009 46.78C119.756 46.78 117.871 46.1083 116.354 44.765C114.859 43.4217 114.112 41.32 114.112 38.46V25.1675H109.107V19.3175ZM154.725 46V41.06C154.552 41.58 154.053 42.295 153.23 43.205C152.428 44.115 151.323 44.9383 149.915 45.675C148.528 46.4117 146.882 46.78 144.975 46.78C142.483 46.78 140.241 46.1842 138.247 44.9925C136.254 43.8008 134.683 42.1433 133.535 40.02C132.387 37.8967 131.812 35.4483 131.812 32.675C131.812 29.9017 132.387 27.4533 133.535 25.33C134.683 23.2067 136.254 21.5492 138.247 20.3575C140.241 19.1442 142.483 18.5375 144.975 18.5375C146.838 18.5375 148.452 18.8625 149.817 19.5125C151.182 20.1625 152.277 20.91 153.1 21.755C153.945 22.6 154.465 23.3367 154.66 23.965V19.3175H161.55V46H154.725ZM138.67 32.675C138.67 34.3867 139.049 35.8817 139.807 37.16C140.566 38.4383 141.552 39.4242 142.765 40.1175C144 40.8108 145.322 41.1575 146.73 41.1575C148.247 41.1575 149.59 40.8 150.76 40.085C151.952 39.37 152.883 38.3842 153.555 37.1275C154.248 35.8492 154.595 34.365 154.595 32.675C154.595 30.985 154.248 29.5117 153.555 28.255C152.883 26.9767 151.952 25.98 150.76 25.265C149.59 24.5283 148.247 24.16 146.73 24.16C145.322 24.16 144 24.5175 142.765 25.2325C141.552 25.9258 140.566 26.9117 139.807 28.19C139.049 29.4683 138.67 30.9633 138.67 32.675ZM181.863 41.1575C183.402 41.1575 184.648 40.9083 185.601 40.41C186.576 39.89 187.204 39.5108 187.486 39.2725L190.768 44.1475C190.508 44.3642 189.967 44.6892 189.143 45.1225C188.32 45.5342 187.269 45.9133 185.991 46.26C184.734 46.6067 183.304 46.78 181.701 46.78C179.058 46.78 176.653 46.2275 174.486 45.1225C172.341 43.9958 170.618 42.3817 169.318 40.28C168.04 38.1567 167.401 35.6108 167.401 32.6425C167.401 29.6525 168.04 27.1067 169.318 25.005C170.618 22.9033 172.341 21.3 174.486 20.195C176.653 19.09 179.058 18.5375 181.701 18.5375C183.283 18.5375 184.691 18.7217 185.926 19.09C187.183 19.4367 188.223 19.8375 189.046 20.2925C189.869 20.7475 190.422 21.105 190.703 21.365L187.356 26.24C187.204 26.0883 186.89 25.85 186.413 25.525C185.958 25.1783 185.352 24.8642 184.593 24.5825C183.835 24.3008 182.925 24.16 181.863 24.16C180.563 24.16 179.318 24.5067 178.126 25.2C176.934 25.8933 175.959 26.8792 175.201 28.1575C174.443 29.4142 174.063 30.9092 174.063 32.6425C174.063 34.3758 174.443 35.8817 175.201 37.16C175.959 38.4383 176.934 39.4242 178.126 40.1175C179.318 40.8108 180.563 41.1575 181.863 41.1575ZM193.34 19.3175H198.345V8.365H205.235V19.3175H211.832V25.1675H205.235V36.575C205.235 38.005 205.473 39.0775 205.95 39.7925C206.448 40.5075 207.152 40.865 208.062 40.865C208.821 40.865 209.417 40.7242 209.85 40.4425C210.305 40.1608 210.576 39.9658 210.662 39.8575L213.23 44.895C213.1 45.025 212.721 45.2417 212.092 45.545C211.464 45.8483 210.652 46.13 209.655 46.39C208.658 46.65 207.521 46.78 206.242 46.78C203.989 46.78 202.104 46.1083 200.587 44.765C199.092 43.4217 198.345 41.32 198.345 38.46V25.1675H193.34V19.3175Z" fill="white"/>
</svg>
