<svg width="148" height="47" viewBox="0 0 148 47" fill="none" xmlns="http://www.w3.org/2000/svg">
<path d="M9.685 9.5025L10.14 9.5675V46H3.315V3.1H12.8375L33.5725 39.5L33.15 39.5975V3.1H39.9425V46H30.3875L9.685 9.5025ZM52.9999 34.3C53.0432 35.7083 53.379 36.9758 54.0074 38.1025C54.6357 39.2292 55.5566 40.1175 56.7699 40.7675C58.0049 41.3958 59.5107 41.71 61.2874 41.71C62.8257 41.71 64.1474 41.5042 65.2524 41.0925C66.3791 40.6592 67.3107 40.15 68.0474 39.565C68.7841 38.9583 69.3257 38.395 69.6724 37.875L72.7599 42.0675C72.0882 42.9775 71.2432 43.79 70.2249 44.505C69.2066 45.22 67.9391 45.7725 66.4224 46.1625C64.9274 46.5742 63.0749 46.78 60.8649 46.78C57.9615 46.78 55.4374 46.1842 53.2924 44.9925C51.1474 43.8008 49.479 42.1217 48.2874 39.955C47.1174 37.7883 46.5324 35.2533 46.5324 32.35C46.5324 29.75 47.074 27.41 48.1574 25.33C49.2407 23.2283 50.8115 21.5708 52.8699 20.3575C54.9499 19.1442 57.4416 18.5375 60.3449 18.5375C63.0532 18.5375 65.404 19.0792 67.3974 20.1625C69.3907 21.2458 70.9291 22.8058 72.0124 24.8425C73.1174 26.8575 73.6699 29.295 73.6699 32.155C73.6699 32.3283 73.6591 32.6858 73.6374 33.2275C73.6374 33.7692 73.6157 34.1267 73.5724 34.3H52.9999ZM67.1699 29.23C67.1482 28.5367 66.9099 27.7458 66.4549 26.8575C66.0216 25.9692 65.3174 25.2 64.3424 24.55C63.3674 23.8783 62.0674 23.5425 60.4424 23.5425C58.7741 23.5425 57.4199 23.8675 56.3799 24.5175C55.3399 25.1458 54.5707 25.9042 54.0724 26.7925C53.574 27.6592 53.2815 28.4717 53.1949 29.23H67.1699ZM98.0398 27.41L91.4423 46H84.6173L76.8823 19.3175H84.2598L88.9073 38.4925L95.4398 19.8375H100.672L107.14 38.4925L111.852 19.3175H119.23L111.527 46H104.702L98.0398 27.41ZM134.608 18.5375C136.103 18.5375 137.49 18.6783 138.768 18.96C140.047 19.2417 141.141 19.5775 142.051 19.9675C142.961 20.3575 143.589 20.6825 143.936 20.9425L141.401 25.2325C140.968 24.8642 140.188 24.4417 139.061 23.965C137.956 23.4883 136.71 23.25 135.323 23.25C133.937 23.25 132.767 23.4992 131.813 23.9975C130.86 24.4958 130.383 25.2433 130.383 26.24C130.383 27.215 130.882 27.995 131.878 28.58C132.897 29.165 134.273 29.6525 136.006 30.0425C137.436 30.3675 138.801 30.8225 140.101 31.4075C141.401 31.9708 142.463 32.7833 143.286 33.845C144.131 34.885 144.553 36.2825 144.553 38.0375C144.553 39.7058 144.196 41.1033 143.481 42.23C142.788 43.335 141.856 44.2233 140.686 44.895C139.516 45.5667 138.216 46.0433 136.786 46.325C135.378 46.6283 133.958 46.78 132.528 46.78C130.773 46.78 129.203 46.6067 127.816 46.26C126.451 45.9133 125.313 45.5125 124.403 45.0575C123.493 44.5808 122.843 44.18 122.453 43.855L124.988 39.045C125.552 39.5867 126.473 40.1608 127.751 40.7675C129.029 41.3525 130.459 41.645 132.041 41.645C133.731 41.645 135.085 41.32 136.103 40.67C137.122 40.02 137.631 39.1533 137.631 38.07C137.631 37.2683 137.382 36.6183 136.883 36.12C136.407 35.6217 135.746 35.2208 134.901 34.9175C134.056 34.6142 133.113 34.3433 132.073 34.105C131.098 33.8667 130.113 33.5633 129.116 33.195C128.141 32.805 127.242 32.3067 126.418 31.7C125.595 31.0717 124.934 30.2917 124.436 29.36C123.938 28.4283 123.688 27.3342 123.688 26.0775C123.688 24.4742 124.198 23.1092 125.216 21.9825C126.234 20.8558 127.578 20 129.246 19.415C130.914 18.83 132.702 18.5375 134.608 18.5375Z" fill="#262626"/>
</svg>
