<svg width="643" height="59" viewBox="0 0 643 59" fill="none" xmlns="http://www.w3.org/2000/svg">
<g clip-path="url(#clip0_937_2558)">
<path d="M628 43H114.975L110 56H623.025L628 43Z" fill="url(#paint0_linear_937_2558)"/>
<path d="M282 19H-17.3128L-20 26H279.313L282 19Z" fill="url(#paint1_linear_937_2558)"/>
<path d="M637.5 11C640.538 11 643 8.53757 643 5.5C643 2.46243 640.538 0 637.5 0C634.462 0 632 2.46243 632 5.5C632 8.53757 634.462 11 637.5 11Z" fill="#43C6FA"/>
<path d="M91.5 56C95.0899 56 98 53.0899 98 49.5C98 45.9101 95.0899 43 91.5 43C87.9101 43 85 45.9101 85 49.5C85 53.0899 87.9101 56 91.5 56Z" fill="#DA3241"/>
</g>
<defs>
<linearGradient id="paint0_linear_937_2558" x1="138" y1="49.5" x2="647.838" y2="49.5" gradientUnits="userSpaceOnUse">
<stop stop-color="#45D0FF" stop-opacity="0.2"/>
<stop offset="1" stop-color="#45D0FF"/>
</linearGradient>
<linearGradient id="paint1_linear_937_2558" x1="2" y1="22.5" x2="293.566" y2="22.5" gradientUnits="userSpaceOnUse">
<stop stop-color="#45D0FF" stop-opacity="0.2"/>
<stop offset="1" stop-color="#45D0FF"/>
</linearGradient>
<clipPath id="clip0_937_2558">
<rect width="643" height="59" fill="white"/>
</clipPath>
</defs>
</svg>
