<svg width="195" height="47" viewBox="0 0 195 47" fill="none" xmlns="http://www.w3.org/2000/svg">
<path d="M17.3875 2.32C19.9008 2.32 22.0783 2.6125 23.92 3.1975C25.7833 3.76083 27.2567 4.3675 28.34 5.0175C29.4233 5.64583 30.0733 6.0575 30.29 6.2525L26.8775 11.81C26.5525 11.5283 25.9675 11.1383 25.1225 10.64C24.2992 10.12 23.2808 9.65416 22.0675 9.2425C20.8758 8.83083 19.5433 8.625 18.07 8.625C15.86 8.625 14.105 9.05833 12.805 9.925C11.505 10.77 10.855 12.005 10.855 13.63C10.855 14.7133 11.2017 15.6667 11.895 16.49C12.5883 17.3133 13.5742 18.0825 14.8525 18.7975C16.1525 19.5125 17.7017 20.2383 19.5 20.975C21.0167 21.6033 22.49 22.3183 23.92 23.12C25.3717 23.9217 26.6717 24.8642 27.82 25.9475C28.9683 27.0308 29.8783 28.2875 30.55 29.7175C31.2433 31.1475 31.59 32.7942 31.59 34.6575C31.59 36.6075 31.1892 38.3408 30.3875 39.8575C29.5858 41.3525 28.4808 42.62 27.0725 43.66C25.6642 44.6783 24.0392 45.4583 22.1975 46C20.3775 46.52 18.4275 46.78 16.3475 46.78C13.6175 46.78 11.1583 46.455 8.97 45.805C6.80333 45.1333 5.04833 44.44 3.705 43.725C2.36167 42.9883 1.58167 42.5117 1.365 42.295L4.9725 36.4775C5.2325 36.6942 5.70917 37.0192 6.4025 37.4525C7.1175 37.8642 7.995 38.3083 9.035 38.785C10.075 39.24 11.2233 39.63 12.48 39.955C13.7583 40.2583 15.08 40.41 16.445 40.41C19.0667 40.41 21.0492 39.8467 22.3925 38.72C23.7358 37.5717 24.4075 36.0983 24.4075 34.3C24.4075 32.935 23.9742 31.7542 23.1075 30.7575C22.2625 29.7392 21.0925 28.8183 19.5975 27.995C18.1242 27.1717 16.445 26.3592 14.56 25.5575C12.6317 24.7125 10.8442 23.7592 9.1975 22.6975C7.5725 21.6358 6.26167 20.3467 5.265 18.83C4.26833 17.2917 3.77 15.4283 3.77 13.24C3.77 11.0517 4.3875 9.145 5.6225 7.52C6.87917 5.87333 8.53667 4.595 10.595 3.685C12.6533 2.775 14.9175 2.32 17.3875 2.32ZM42.9706 34.3C43.0139 35.7083 43.3498 36.9758 43.9781 38.1025C44.6064 39.2292 45.5273 40.1175 46.7406 40.7675C47.9756 41.3958 49.4814 41.71 51.2581 41.71C52.7964 41.71 54.1181 41.5042 55.2231 41.0925C56.3498 40.6592 57.2814 40.15 58.0181 39.565C58.7548 38.9583 59.2964 38.395 59.6431 37.875L62.7306 42.0675C62.0589 42.9775 61.2139 43.79 60.1956 44.505C59.1773 45.22 57.9098 45.7725 56.3931 46.1625C54.8981 46.5742 53.0456 46.78 50.8356 46.78C47.9323 46.78 45.4081 46.1842 43.2631 44.9925C41.1181 43.8008 39.4498 42.1217 38.2581 39.955C37.0881 37.7883 36.5031 35.2533 36.5031 32.35C36.5031 29.75 37.0448 27.41 38.1281 25.33C39.2114 23.2283 40.7823 21.5708 42.8406 20.3575C44.9206 19.1442 47.4123 18.5375 50.3156 18.5375C53.0239 18.5375 55.3748 19.0792 57.3681 20.1625C59.3614 21.2458 60.8998 22.8058 61.9831 24.8425C63.0881 26.8575 63.6406 29.295 63.6406 32.155C63.6406 32.3283 63.6298 32.6858 63.6081 33.2275C63.6081 33.7692 63.5864 34.1267 63.5431 34.3H42.9706ZM57.1406 29.23C57.1189 28.5367 56.8806 27.7458 56.4256 26.8575C55.9923 25.9692 55.2881 25.2 54.3131 24.55C53.3381 23.8783 52.0381 23.5425 50.4131 23.5425C48.7448 23.5425 47.3906 23.8675 46.3506 24.5175C45.3106 25.1458 44.5414 25.9042 44.0431 26.7925C43.5448 27.6592 43.2523 28.4717 43.1656 29.23L57.1406 29.23ZM76.148 46H69.2255L69.2255 19.3175H76.148V23.77H75.9855C76.1372 23.2283 76.5488 22.5567 77.2205 21.755C77.9138 20.9317 78.8672 20.195 80.0805 19.545C81.2938 18.8733 82.7563 18.5375 84.468 18.5375C85.703 18.5375 86.808 18.7108 87.783 19.0575C88.758 19.4042 89.4513 19.7508 89.863 20.0975L87.068 25.8175C86.7863 25.4708 86.2555 25.135 85.4755 24.81C84.7172 24.4633 83.7747 24.29 82.648 24.29C81.2397 24.29 80.048 24.7017 79.073 25.525C78.1197 26.3483 77.3938 27.3342 76.8955 28.4825C76.3972 29.6308 76.148 30.7033 76.148 31.7L76.148 46ZM90.6273 19.3175H98.0698L106.097 39.63L114.125 19.3175L121.535 19.3175L110.192 46H102.035L90.6273 19.3175ZM127.009 46L127.009 19.3175H133.931V46H127.009ZM130.551 11.3225C129.381 11.3225 128.374 10.9 127.529 10.055C126.706 9.21 126.294 8.2025 126.294 7.0325C126.294 5.8625 126.706 4.855 127.529 4.01C128.374 3.14333 129.381 2.71 130.551 2.71C131.331 2.71 132.046 2.91583 132.696 3.3275C133.368 3.7175 133.899 4.2375 134.289 4.8875C134.701 5.51583 134.906 6.23083 134.906 7.0325C134.906 8.2025 134.484 9.21 133.639 10.055C132.794 10.9 131.765 11.3225 130.551 11.3225ZM155.203 41.1575C156.742 41.1575 157.987 40.9083 158.941 40.41C159.916 39.89 160.544 39.5108 160.826 39.2725L164.108 44.1475C163.848 44.3642 163.307 44.6892 162.483 45.1225C161.66 45.5342 160.609 45.9133 159.331 46.26C158.074 46.6067 156.644 46.78 155.041 46.78C152.397 46.78 149.992 46.2275 147.826 45.1225C145.681 43.9958 143.958 42.3817 142.658 40.28C141.38 38.1567 140.741 35.6108 140.741 32.6425C140.741 29.6525 141.38 27.1067 142.658 25.005C143.958 22.9033 145.681 21.3 147.826 20.195C149.992 19.09 152.397 18.5375 155.041 18.5375C156.622 18.5375 158.031 18.7217 159.266 19.09C160.522 19.4367 161.562 19.8375 162.386 20.2925C163.209 20.7475 163.762 21.105 164.043 21.365L160.696 26.24C160.544 26.0883 160.23 25.85 159.753 25.525C159.298 25.1783 158.692 24.8642 157.933 24.5825C157.175 24.3008 156.265 24.16 155.203 24.16C153.903 24.16 152.657 24.5067 151.466 25.2C150.274 25.8933 149.299 26.8792 148.541 28.1575C147.782 29.4142 147.403 30.9092 147.403 32.6425C147.403 34.3758 147.782 35.8817 148.541 37.16C149.299 38.4383 150.274 39.4242 151.466 40.1175C152.657 40.8108 153.903 41.1575 155.203 41.1575ZM173.986 34.3C174.03 35.7083 174.365 36.9758 174.994 38.1025C175.622 39.2292 176.543 40.1175 177.756 40.7675C178.991 41.3958 180.497 41.71 182.274 41.71C183.812 41.71 185.134 41.5042 186.239 41.0925C187.365 40.6592 188.297 40.15 189.034 39.565C189.77 38.9583 190.312 38.395 190.659 37.875L193.746 42.0675C193.075 42.9775 192.23 43.79 191.211 44.505C190.193 45.22 188.925 45.7725 187.409 46.1625C185.914 46.5742 184.061 46.78 181.851 46.78C178.948 46.78 176.424 46.1842 174.279 44.9925C172.134 43.8008 170.465 42.1217 169.274 39.955C168.104 37.7883 167.519 35.2533 167.519 32.35C167.519 29.75 168.06 27.41 169.144 25.33C170.227 23.2283 171.798 21.5708 173.856 20.3575C175.936 19.1442 178.428 18.5375 181.331 18.5375C184.04 18.5375 186.39 19.0792 188.384 20.1625C190.377 21.2458 191.915 22.8058 192.999 24.8425C194.104 26.8575 194.656 29.295 194.656 32.155C194.656 32.3283 194.645 32.6858 194.624 33.2275C194.624 33.7692 194.602 34.1267 194.559 34.3H173.986ZM188.156 29.23C188.135 28.5367 187.896 27.7458 187.441 26.8575C187.008 25.9692 186.304 25.2 185.329 24.55C184.354 23.8783 183.054 23.5425 181.429 23.5425C179.76 23.5425 178.406 23.8675 177.366 24.5175C176.326 25.1458 175.557 25.9042 175.059 26.7925C174.56 27.6592 174.268 28.4717 174.181 29.23L188.156 29.23Z" fill="#262626"/>
<circle cx="130.5" cy="7" r="4.5" fill="#DA3241"/>
</svg>
