<svg width="1564" height="165" viewBox="0 0 1564 165" fill="none" xmlns="http://www.w3.org/2000/svg">
<path d="M1441.54 85.9297C1441.54 83.4705 1442.1 80.8502 1443.23 78.0693L1443.46 77.5117C1444.66 74.6522 1446.43 72.2213 1448.75 70.2197L1449.23 69.8252C1451.79 67.6903 1454.99 66.6231 1458.83 66.623L1459.43 66.6289C1462.4 66.6896 1464.88 67.2065 1466.88 68.1787C1469.08 69.2157 1470.58 70.2223 1471.37 71.1982L1480.52 52.166C1479.45 51.312 1477.75 50.4575 1475.42 49.6035L1474.39 49.2383C1471.76 48.2661 1468.83 47.7492 1465.61 47.6885L1464.96 47.6826C1460.14 47.6826 1456.03 48.5978 1452.61 50.4277L1451.98 50.7617C1448.86 52.4488 1446.39 54.3508 1444.56 56.4668L1443.88 57.2939C1442.82 58.6428 1442.03 59.837 1441.54 60.876V49.8789H1418.3V125H1441.54V85.9297ZM1442.54 57.4033C1442.92 56.8938 1443.34 56.3671 1443.79 55.8242L1443.8 55.8125C1445.73 53.5846 1448.31 51.6131 1451.5 49.8828L1452.15 49.5391C1455.74 47.6191 1460.03 46.6826 1464.96 46.6826C1468.53 46.6826 1471.78 47.2131 1474.71 48.291C1477.6 49.2761 1479.78 50.2967 1481.14 51.3848L1481.76 51.8818L1471.59 73.0518L1470.59 71.8281C1469.95 71.0327 1468.62 70.1048 1466.46 69.083L1466.45 69.0781C1464.49 68.1267 1461.97 67.623 1458.83 67.623C1455.19 67.6231 1452.22 68.631 1449.87 70.5938L1449.86 70.5986L1449.85 70.6025C1447.42 72.5723 1445.6 75.0001 1444.38 77.8984L1444.38 77.9053C1443.14 80.7988 1442.54 83.4704 1442.54 85.9297V126H1417.3V48.8789H1442.54V57.4033Z" fill="#43C6FA"/>
<path d="M1398.71 49.8789H1375.56V125H1398.71V49.8789ZM1399.71 126H1374.56V48.8789H1399.71V126Z" fill="#43C6FA"/>
<path d="M1317.61 3.21973L1364.86 126H1338.37L1328.94 99.9229H1282.03L1272.42 126H1245.83L1293.27 3.21973H1317.61ZM1293.96 4.21973L1247.29 125H1271.72L1281.33 98.9229H1329.64L1339.07 125H1363.41L1316.92 4.21973H1293.96ZM1305.58 31.8525L1322.14 78.7012H1288.83L1305.3 31.8525H1305.58ZM1290.24 77.7012H1320.72L1305.44 34.4717L1290.24 77.7012Z" fill="#43C6FA"/>
<path d="M1167.93 102.033C1167.93 100.379 1167.41 99.1295 1166.41 98.1836L1166.4 98.1748L1166.39 98.166C1165.3 97.0747 1163.76 96.1342 1161.72 95.376C1159.64 94.6043 1157.19 93.9149 1154.36 93.3125C1151.68 92.752 1148.95 91.9442 1146.16 90.8906L1146.15 90.8877L1146.14 90.8838C1143.32 89.7536 1140.68 88.2774 1138.23 86.457C1135.74 84.6027 1133.72 82.2992 1132.19 79.5547L1132.18 79.5459C1130.62 76.6865 1129.87 73.3121 1129.87 69.46C1129.87 64.4666 1131.48 60.2453 1134.72 56.8711C1137.9 53.5048 1142.01 50.9867 1147.02 49.2969C1152.01 47.5515 1157.33 46.6826 1162.98 46.6826C1167.56 46.6826 1171.81 47.1154 1175.73 47.9873C1179.6 48.7864 1182.89 49.7134 1185.58 50.7754C1188.25 51.8088 1190.17 52.7451 1191.17 53.6025L1191.8 54.1396L1182.85 69.874L1181.94 69.1426C1180.83 68.2592 1178.75 67.1443 1175.58 65.8057L1175.58 65.8027C1172.61 64.5215 1169.27 63.8711 1165.54 63.8711C1162.18 63.8711 1159.42 64.4627 1157.22 65.5918L1157.21 65.5957L1157.2 65.6006C1156.13 66.1214 1155.39 66.7482 1154.91 67.4551C1154.44 68.1558 1154.19 68.9941 1154.19 70.0088C1154.19 71.9333 1155.19 73.5299 1157.51 74.8047C1159.96 76.1445 1163.43 77.3389 1167.96 78.3662C1171.87 79.1742 1175.71 80.4151 1179.49 82.0869C1183.35 83.7338 1186.56 86.1468 1189.1 89.3232C1191.73 92.5379 1192.99 96.7793 1192.99 101.942C1192.99 107.026 1191.89 111.346 1189.62 114.839C1187.46 118.216 1184.56 120.891 1180.94 122.859C1177.36 124.803 1173.45 126.177 1169.21 126.988C1165 127.793 1160.82 128.196 1156.67 128.196C1151.3 128.196 1146.55 127.672 1142.42 126.609C1138.36 125.624 1134.96 124.475 1132.26 123.153L1132.24 123.147L1132.23 123.141C1129.66 121.792 1127.75 120.624 1126.57 119.638L1125.95 119.126L1134.86 101.711L1135.83 102.565C1137.31 103.873 1139.8 105.381 1143.37 107.077C1146.89 108.658 1150.68 109.451 1154.75 109.451V110.451C1150.8 110.451 1147.1 109.728 1143.63 108.28L1142.94 107.981C1139.34 106.273 1136.75 104.717 1135.17 103.314L1127.21 118.869C1128.3 119.784 1130.13 120.913 1132.7 122.255C1135.32 123.536 1138.64 124.665 1142.67 125.641C1146.44 126.613 1150.78 127.129 1155.68 127.189L1156.67 127.196C1160.5 127.196 1164.36 126.847 1168.24 126.15L1169.02 126.007C1172.91 125.263 1176.5 124.037 1179.8 122.329L1180.46 121.98C1183.94 120.09 1186.71 117.528 1188.79 114.295C1190.79 111.207 1191.85 107.394 1191.97 102.858L1191.99 101.942C1191.99 96.9404 1190.77 92.9441 1188.33 89.9551C1186.04 87.096 1183.19 84.8802 1179.78 83.3076L1179.09 83.002C1175.6 81.4579 1172.06 80.2886 1168.46 79.4951L1167.74 79.3418C1163.45 78.3696 1160.05 77.2363 1157.53 75.9424L1157.03 75.6816C1154.55 74.3226 1153.27 72.5053 1153.2 70.2305L1153.19 70.0088C1153.19 67.6298 1154.38 65.8602 1156.76 64.7012C1159.14 63.4812 1162.07 62.8711 1165.54 62.8711C1169.39 62.8711 1172.86 63.5429 1175.97 64.8848C1179.15 66.2268 1181.34 67.3853 1182.56 68.3613L1190.52 54.3623C1189.78 53.7218 1188.33 52.9638 1186.18 52.0898L1185.22 51.708C1182.59 50.671 1179.36 49.7569 1175.52 48.9639C1171.91 48.1632 1168.02 47.7375 1163.82 47.6875L1162.98 47.6826C1157.43 47.6826 1152.22 48.5362 1147.34 50.2441L1146.43 50.5625C1141.96 52.1995 1138.3 54.5334 1135.44 57.5645C1132.39 60.7364 1130.87 64.702 1130.87 69.46L1130.87 70.1514C1130.96 73.5789 1131.69 76.5512 1133.06 79.0674C1134.53 81.6903 1136.45 83.8863 1138.83 85.6553C1141.2 87.4241 1143.77 88.8571 1146.51 89.9551C1149.26 90.9921 1151.94 91.786 1154.56 92.335C1157.43 92.9449 1159.93 93.6465 1162.07 94.4395C1164.2 95.2324 1165.88 96.2391 1167.1 97.459C1168.32 98.6179 1168.93 100.142 1168.93 102.033L1168.93 102.272C1168.85 104.723 1167.57 106.687 1165.09 108.164C1162.59 109.689 1159.14 110.451 1154.75 110.451V109.451C1159.04 109.451 1162.28 108.704 1164.57 107.311L1164.58 107.305L1165 107.042C1167.02 105.706 1167.93 104.045 1167.93 102.033Z" fill="#43C6FA"/>
<path d="M1112.33 49.8789H1089.28V62.0479C1088.61 60.2789 1087.11 58.2965 1084.79 56.1006C1082.54 53.8436 1079.55 51.8911 1075.83 50.2441C1072.4 48.6429 1068.37 47.7924 1063.76 47.6924L1062.83 47.6826C1055.64 47.6826 1049.26 49.4214 1043.71 52.8984L1043.19 53.2275C1037.89 56.6734 1033.7 61.3217 1030.63 67.1719C1027.51 73.1499 1025.96 79.9214 1025.96 87.4854L1025.96 88.1914C1026.06 95.4731 1027.61 102.039 1030.63 107.89C1033.8 113.868 1038.16 118.595 1043.71 122.072C1049.09 125.381 1055.24 127.088 1062.16 127.191L1062.83 127.196C1067.64 127.196 1071.85 126.339 1075.48 124.623L1076.19 124.268C1079.8 122.381 1082.7 120.306 1084.91 118.044L1085.34 117.589C1087.6 115.149 1089 113.257 1089.55 111.915V125H1112.33V49.8789ZM1088.19 87.4854C1088.19 83.4834 1087.33 79.9952 1085.66 76.9922L1085.65 76.9824L1085.65 76.9717C1084.02 73.8904 1081.79 71.4957 1078.96 69.7637C1076.15 68.0391 1072.92 67.1651 1069.24 67.165C1065.76 67.165 1062.54 68.0343 1059.59 69.7725L1059.58 69.7764L1059.58 69.7803C1056.63 71.4582 1054.25 73.8295 1052.44 76.918L1052.44 76.9258C1050.65 79.9222 1049.74 83.431 1049.74 87.4854C1049.74 91.536 1050.65 95.076 1052.44 98.1357L1052.78 98.6953C1054.54 101.455 1056.81 103.615 1059.58 105.19C1062.53 106.872 1065.75 107.713 1069.24 107.713V108.713L1068.56 108.702C1065.38 108.605 1062.42 107.832 1059.67 106.381L1059.08 106.06C1056.17 104.401 1053.79 102.126 1051.94 99.2344L1051.58 98.6484C1049.81 95.6175 1048.86 92.1573 1048.75 88.2686L1048.74 87.4854C1048.74 83.2764 1049.69 79.5851 1051.58 76.4131C1053.47 73.1802 1055.97 70.6791 1059.08 68.9102C1062.19 67.0802 1065.58 66.165 1069.24 66.165L1069.95 66.1758C1073.51 66.283 1076.69 67.1945 1079.49 68.9102C1082.48 70.7401 1084.82 73.272 1086.53 76.5049C1088.3 79.6769 1089.19 83.3374 1089.19 87.4854L1089.18 88.2578C1089.07 92.0928 1088.19 95.5258 1086.53 98.5566L1086.21 99.1436C1084.53 102.039 1082.29 104.344 1079.49 106.06C1076.5 107.829 1073.08 108.713 1069.24 108.713V107.713C1072.92 107.713 1076.16 106.867 1078.98 105.199C1081.81 103.465 1084.03 101.098 1085.65 98.082L1085.66 98.0762C1087.33 95.0082 1088.19 91.4867 1088.19 87.4854ZM1113.33 126H1088.55V115.382C1087.87 116.262 1087.04 117.225 1086.08 118.268C1083.72 120.813 1080.57 123.104 1076.66 125.154L1076.65 125.156C1072.7 127.195 1068.09 128.196 1062.83 128.196C1055.47 128.196 1048.91 126.447 1043.19 122.924L1043.18 122.92C1037.47 119.347 1032.99 114.486 1029.74 108.358L1029.74 108.348C1026.55 102.152 1024.96 95.1902 1024.96 87.4854C1024.96 79.7806 1026.55 72.8472 1029.74 66.71L1029.74 66.707C1032.99 60.5182 1037.47 55.6257 1043.18 52.0508C1048.91 48.4644 1055.47 46.6826 1062.83 46.6826C1067.95 46.6826 1072.43 47.5552 1076.25 49.3379H1076.25C1080.05 51.0201 1083.14 53.0327 1085.5 55.3936C1086.59 56.4259 1087.52 57.4308 1088.28 58.4072V48.8789H1113.33V126Z" fill="#43C6FA"/>
<path d="M908.543 48.8789L928.021 101.825L949.537 48.8789H974.729L922.756 163.477L922.49 164.064H896.96L914.715 124.981L883.106 48.8789H908.543ZM884.604 49.8789L915.807 125L898.513 163.064H921.846L973.177 49.8789H950.21L927.976 104.596L907.846 49.8789H884.604Z" fill="#43C6FA"/>
<path d="M858.694 96.3604V69.1846H876.445V49.8789H858.694V19.043H835.637V49.8789H822.095V69.1846H835.637V102.582L835.644 103.365C835.78 111.387 838.035 117.348 842.407 121.248C846.78 125.089 852.27 127.07 858.875 127.19L859.518 127.196C863.36 127.196 866.807 126.8 869.857 126.007C872.968 125.275 875.5 124.451 877.452 123.536C879.465 122.621 880.655 121.98 881.021 121.614L872.785 104.962C872.541 105.267 871.809 105.816 870.59 106.608L870.356 106.741C869.173 107.384 867.696 107.706 865.923 107.706V106.706C867.686 106.706 869.047 106.365 870.067 105.755C870.657 105.371 871.117 105.054 871.453 104.802C871.817 104.529 871.97 104.381 872.005 104.337L872.985 103.11L882.235 121.814L881.728 122.321C881.427 122.621 880.914 122.935 880.328 123.25C879.707 123.584 878.887 123.981 877.876 124.44L877.877 124.441C875.845 125.394 873.248 126.234 870.108 126.974C866.961 127.792 863.427 128.196 859.518 128.196C852.42 128.196 846.471 126.148 841.748 122L841.742 121.995C836.942 117.714 834.637 111.169 834.637 102.582V70.1846H821.095V48.8789H834.637V18.043H859.694V48.8789H877.445V70.1846H859.694V96.3604C859.694 99.8644 860.261 102.468 861.293 104.268L861.479 104.562C862.438 105.981 863.869 106.706 865.923 106.706V107.706C863.422 107.706 861.592 106.73 860.433 104.778C859.274 102.765 858.694 99.9592 858.694 96.3604Z" fill="#43C6FA"/>
<path d="M807.358 49.8789H784.209V125H807.358V49.8789ZM808.358 126H783.209V48.8789H808.358V126Z" fill="#43C6FA"/>
<path d="M704.955 48.8789L724.854 100.97L744.753 48.8789H771.747L739.409 125.39L739.15 126H710.559L677.869 48.8789H704.955ZM679.379 49.8789L711.221 125H738.488L770.238 49.8789H745.441L724.854 103.772L704.267 49.8789H679.379Z" fill="#43C6FA"/>
<path d="M665.283 49.8789H642.134V125H665.283V49.8789ZM666.283 126H641.134V48.8789H666.283V126Z" fill="#43C6FA"/>
<path d="M606.891 96.3604V69.1846H624.642V49.8789H606.891V19.043H583.833V49.8789H570.291V69.1846H583.833V102.582L583.84 103.365C583.976 111.387 586.231 117.348 590.604 121.248C594.976 125.089 600.466 127.07 607.071 127.19L607.714 127.196C611.557 127.196 615.004 126.8 618.054 126.007C621.165 125.275 623.696 124.451 625.648 123.536C627.661 122.621 628.851 121.98 629.217 121.614L620.981 104.962C620.737 105.267 620.005 105.816 618.786 106.608L618.553 106.741C617.37 107.384 615.892 107.706 614.119 107.706V106.706C615.883 106.706 617.243 106.365 618.264 105.755C618.853 105.371 619.313 105.054 619.649 104.802C620.014 104.529 620.166 104.381 620.201 104.337L621.182 103.11L630.432 121.814L629.924 122.321C629.624 122.621 629.11 122.935 628.524 123.25C627.904 123.584 627.083 123.981 626.072 124.44L626.073 124.441C624.041 125.394 621.444 126.234 618.305 126.974C615.157 127.792 611.624 128.196 607.714 128.196C600.616 128.196 594.667 126.148 589.944 122L589.938 121.995C585.138 117.714 582.833 111.169 582.833 102.582V70.1846H569.291V48.8789H582.833V18.043H607.891V48.8789H625.642V70.1846H607.891V96.3604C607.891 99.8644 608.457 102.468 609.489 104.268L609.675 104.562C610.635 105.981 612.065 106.706 614.119 106.706V107.706C611.618 107.706 609.788 106.73 608.629 104.778C607.47 102.765 606.891 99.9592 606.891 96.3604Z" fill="#43C6FA"/>
<path d="M519.148 87.3936C519.148 83.1236 520.093 79.4025 521.984 76.2305C523.875 73.0585 526.316 70.5883 529.305 68.8193C532.355 67.0503 535.557 66.165 538.912 66.165L539.422 66.1699C541.949 66.2128 544.128 66.5774 545.958 67.2637C547.971 67.9956 549.587 68.7887 550.807 69.6426C552.026 70.4964 552.85 71.1673 553.277 71.6553L564.349 55.5518C563.548 54.8579 562.187 54.0003 560.266 52.9795L559.408 52.5322C557.029 51.2512 554.07 50.1225 550.532 49.1465C547.273 48.2316 543.558 47.7457 539.387 47.6885L538.546 47.6826C530.616 47.6826 523.51 49.2685 517.227 52.4404L516.642 52.7422C510.634 55.8982 505.858 60.3421 502.312 66.0742C498.714 71.9912 496.913 79.0976 496.913 87.3936L496.919 88.1621C497.028 96.0715 498.826 102.922 502.312 108.713C505.972 114.63 510.944 119.205 517.227 122.438C523.313 125.511 530.173 127.095 537.805 127.191L538.546 127.196C543.121 127.196 547.178 126.708 550.716 125.732C554.315 124.817 557.273 123.749 559.591 122.529C561.619 121.462 563.087 120.604 563.994 119.957L564.349 119.693L553.552 103.681C552.759 104.352 551.112 105.358 548.611 106.7L548.134 106.943C545.703 108.123 542.629 108.713 538.912 108.713V107.713C542.774 107.713 545.829 107.058 548.139 105.818C550.649 104.471 552.205 103.51 552.906 102.917L553.758 102.196L565.698 119.905L564.967 120.479C564.034 121.213 562.374 122.194 560.057 123.414C557.651 124.68 554.618 125.769 550.98 126.695L550.981 126.696C547.339 127.701 543.19 128.196 538.546 128.196C530.479 128.196 523.215 126.582 516.775 123.331L516.769 123.327C510.327 120.012 505.219 115.313 501.462 109.239L501.455 109.229C497.747 103.069 495.913 95.7771 495.913 87.3936C495.913 78.9508 497.746 71.6568 501.458 65.5547L501.462 65.5479C505.22 59.4725 510.33 54.8018 516.775 51.5479C523.215 48.2968 530.479 46.6826 538.546 46.6826C543.129 46.6826 547.219 47.1777 550.803 48.1836C554.388 49.1727 557.419 50.3252 559.882 51.6514C562.259 52.8712 563.993 53.92 565.004 54.7959L565.68 55.3809L553.372 73.2822L552.525 72.3145C552.185 71.9257 551.45 71.3136 550.233 70.4619C549.109 69.6747 547.579 68.9171 545.616 68.2031L545.606 68.2002C543.796 67.5213 541.573 67.165 538.912 67.165C535.743 67.165 532.712 67.9985 529.807 69.6836C526.974 71.3617 524.653 73.7071 522.844 76.7422C521.059 79.7365 520.148 83.2752 520.148 87.3936C520.148 91.5081 521.057 95.078 522.844 98.1357L523.189 98.6973C524.946 101.461 527.15 103.621 529.806 105.194C532.711 106.88 535.742 107.713 538.912 107.713V108.713L538.285 108.702C535.366 108.605 532.564 107.832 529.878 106.381L529.305 106.06C526.316 104.291 523.875 101.82 521.984 98.6484C520.212 95.6176 519.27 92.1307 519.159 88.1885L519.148 87.3936Z" fill="#43C6FA"/>
<path d="M405.281 86.5703C405.281 79.1041 406.869 72.3519 410.064 66.3369C413.265 60.2505 417.915 55.448 423.99 51.9404L423.994 51.9385C430.152 48.4195 437.498 46.6826 445.992 46.6826C453.985 46.6826 460.951 48.2317 466.854 51.3691C472.829 54.4508 477.458 58.9859 480.725 64.9531C483.996 70.9292 485.605 78.18 485.605 86.6611C485.605 87.1681 485.573 88.1817 485.514 89.6807C485.514 91.1261 485.457 92.2251 485.301 92.8516L485.111 93.6094H429.049C429.34 96.4447 430.181 98.982 431.564 101.236C433.101 103.74 435.327 105.721 438.281 107.171C441.289 108.617 444.917 109.36 449.195 109.36V110.36L448.379 110.351C444.333 110.261 440.822 109.502 437.849 108.072C434.932 106.643 432.659 104.704 431.029 102.256L430.712 101.759C429.065 99.0749 428.15 96.0252 427.967 92.6094H484.331L484.374 92.4033C484.467 91.8696 484.514 90.9618 484.514 89.6807C484.544 88.9182 484.567 88.2854 484.582 87.7822L484.605 86.6611C484.605 78.5653 483.117 71.6719 480.14 65.9805L479.848 65.4336C476.775 59.8198 472.471 55.5225 466.937 52.542L466.396 52.2578C460.842 49.3031 454.285 47.7788 446.727 47.6865L445.992 47.6826C437.635 47.6826 430.468 49.3907 424.49 52.8066C418.573 56.2226 414.059 60.8889 410.948 66.8057C407.837 72.6617 406.281 79.2503 406.281 86.5703L406.286 87.3555C406.391 95.4403 408.129 102.437 411.497 108.347C414.974 114.447 419.823 119.114 426.045 122.347C432.073 125.479 439.045 127.094 446.962 127.191L447.73 127.196C454.257 127.196 459.687 126.647 464.018 125.549C468.409 124.512 472.008 123.109 474.814 121.34C477.502 119.624 479.681 117.775 481.351 115.791L481.678 115.393L472.07 101.118C471.033 102.46 469.447 103.863 467.312 105.327C465.238 106.73 462.676 107.92 459.626 108.896L459.06 109.073C456.2 109.931 452.912 110.36 449.195 110.36V109.36C453.081 109.36 456.449 108.881 459.315 107.945L459.321 107.943C462.304 106.989 464.775 105.836 466.752 104.499C468.838 103.068 470.33 101.734 471.278 100.507L472.126 99.4111L482.917 115.443L482.458 116.018C480.667 118.256 478.29 120.308 475.353 122.183L475.349 122.186C472.422 124.03 468.711 125.469 464.248 126.522L464.247 126.521C459.811 127.644 454.298 128.196 447.73 128.196C439.363 128.196 431.971 126.552 425.584 123.233C419.191 119.912 414.2 115.109 410.628 108.842C407.049 102.564 405.281 95.1271 405.281 86.5703ZM446.267 63.7861C450.232 63.7861 453.404 64.579 455.783 66.165C458.162 67.7509 459.9 69.6729 460.998 71.9297C462.157 74.1866 462.767 76.2913 462.828 78.2432H428.607C428.779 76.2417 429.433 74.2133 430.569 72.1582L430.804 71.7471C432.085 69.4901 433.976 67.5992 436.477 66.0742C439.038 64.5493 442.302 63.7862 446.267 63.7861ZM446.267 64.7861C442.424 64.7862 439.353 65.5264 436.988 66.9336L436.987 66.9326C434.617 68.3797 432.858 70.152 431.673 72.2402L431.667 72.251C430.671 73.959 430.038 75.6221 429.748 77.2432H461.742C461.542 75.754 461.007 74.1372 460.108 72.3867L460.104 72.377L460.1 72.3672C459.09 70.2912 457.481 68.4984 455.229 66.9971C453.066 65.5554 450.108 64.7861 446.267 64.7861Z" fill="#43C6FA"/>
<path d="M392.615 78.793C392.615 71.412 391.029 65.4334 387.857 60.8584C384.746 56.2834 380.75 52.9588 375.87 50.8848C371.295 48.8834 366.613 47.8205 361.824 47.6953L360.864 47.6826C356.655 47.6826 352.72 48.4448 349.061 49.9697C345.401 51.4337 342.382 53.2641 340.003 55.46L339.566 55.8711C337.436 57.9227 336.057 59.9209 335.428 61.8652V49.8789H312.187V125H335.428V84.1914C335.428 80.4094 336.281 77.054 337.989 74.126C339.648 71.3236 341.735 69.111 344.252 67.4883L344.761 67.1719C347.567 65.464 350.495 64.6104 353.545 64.6104L353.982 64.6143C358.477 64.7048 362.113 66.1982 364.891 69.0938C367.818 72.0827 369.282 76.6576 369.282 82.8184V125H392.615V78.793ZM336.428 57.8994C337.213 56.8379 338.182 55.78 339.324 54.7256C341.807 52.4337 344.933 50.5458 348.677 49.0469L349.39 48.7598C352.974 47.3725 356.802 46.6826 360.864 46.6826C366.132 46.6826 371.27 47.7807 376.271 49.9688H376.271C381.328 52.1203 385.467 55.5692 388.679 60.2891L388.985 60.7422C392.099 65.4666 393.615 71.5089 393.615 78.793V126H368.282V82.8184C368.282 76.7964 366.85 72.5227 364.176 69.793L364.169 69.7861C361.517 67.021 358.009 65.6104 353.545 65.6104C350.692 65.6104 347.942 66.4061 345.28 68.0264L345.275 68.0293C342.687 69.5826 340.544 71.7733 338.853 74.6289C337.244 77.3868 336.428 80.5655 336.428 84.1914V126H311.187V48.8789H336.428V57.8994Z" fill="#43C6FA"/>
<path d="M294.86 78.793C294.86 71.412 293.274 65.4334 290.103 60.8584C286.992 56.2834 282.995 52.9588 278.115 50.8848C273.54 48.8834 268.859 47.8205 264.069 47.6953L263.109 47.6826C258.9 47.6826 254.966 48.4448 251.306 49.9697C247.646 51.4337 244.627 53.2641 242.248 55.46L241.812 55.8711C239.681 57.9227 238.302 59.9209 237.673 61.8652V49.8789H214.432V125H237.673V84.1914C237.673 80.4094 238.526 77.054 240.234 74.126C241.893 71.3236 243.981 69.111 246.497 67.4883L247.006 67.1719C249.812 65.464 252.74 64.6104 255.79 64.6104L256.228 64.6143C260.722 64.7048 264.358 66.1982 267.136 69.0938C270.064 72.0827 271.527 76.6576 271.527 82.8184V125H294.86V78.793ZM238.673 57.8994C239.458 56.8379 240.427 55.78 241.569 54.7256C244.052 52.4337 247.178 50.5458 250.922 49.0469L251.635 48.7598C255.22 47.3725 259.047 46.6826 263.109 46.6826C268.377 46.6826 273.515 47.7807 278.517 49.9688H278.516C283.573 52.1203 287.712 55.5692 290.924 60.2891L291.23 60.7422C294.344 65.4666 295.86 71.5089 295.86 78.793V126H270.527V82.8184C270.527 76.7964 269.095 72.5227 266.421 69.793L266.414 69.7861C263.762 67.021 260.254 65.6104 255.79 65.6104C252.938 65.6104 250.187 66.4061 247.525 68.0264L247.521 68.0293C244.932 69.5826 242.789 71.7733 241.098 74.6289C239.489 77.3868 238.673 80.5655 238.673 84.1914V126H213.432V48.8789H238.673V57.8994Z" fill="#43C6FA"/>
<path d="M199.564 87.668C199.564 80.2813 197.933 73.6672 194.67 67.8262L194.349 67.2637C190.872 61.2247 186.053 56.4663 179.892 52.9893C173.923 49.5619 167.067 47.7946 159.324 47.6875L158.572 47.6826C150.581 47.6826 143.444 49.4513 137.161 52.9893C130.939 56.4663 126.059 61.2247 122.521 67.2637L122.194 67.8262C118.874 73.6672 117.214 80.2813 117.214 87.668C117.214 95.2929 118.984 102.094 122.521 108.072C126.059 113.989 130.939 118.656 137.161 122.072C143.248 125.381 150.136 127.088 157.825 127.191L158.572 127.196C166.373 127.196 173.286 125.593 179.312 122.388L179.892 122.072C186.053 118.656 190.872 113.989 194.349 108.072C197.717 102.281 199.454 95.7175 199.56 88.3809L199.564 87.668ZM176.513 87.5762C176.513 83.8113 175.749 80.4622 174.243 77.5078L174.239 77.501L174.236 77.4941C172.792 74.5474 170.722 72.252 168.021 70.585L168.01 70.5781L168 70.5713C165.379 68.8622 162.251 67.9893 158.572 67.9893C154.894 67.9893 151.731 68.8626 149.045 70.5771L149.041 70.5801C146.396 72.2478 144.319 74.5486 142.811 77.5078C141.304 80.4622 140.54 83.8113 140.54 87.5762C140.54 91.3411 141.304 94.6901 142.811 97.6445C144.316 100.537 146.389 102.807 149.033 104.477C151.72 106.074 154.888 106.89 158.572 106.89V107.89L157.857 107.88C154.312 107.78 151.195 106.928 148.507 105.327C145.701 103.558 143.505 101.148 141.919 98.0986C140.333 94.9877 139.54 91.48 139.54 87.5762C139.54 83.6723 140.333 80.1646 141.919 77.0537C143.406 74.1371 145.429 71.8103 147.988 70.0732L148.507 69.7344C151.374 67.9044 154.729 66.9893 158.572 66.9893L159.287 67C162.829 67.1073 165.915 68.0188 168.546 69.7344C171.413 71.5033 173.609 73.9429 175.134 77.0537C176.72 80.1646 177.513 83.6723 177.513 87.5762C177.513 91.48 176.72 94.9877 175.134 98.0986C173.609 101.149 171.413 103.558 168.546 105.327L168.014 105.638C165.322 107.139 162.175 107.89 158.572 107.89V106.89C162.263 106.89 165.401 106.071 168.025 104.474C170.73 102.804 172.797 100.536 174.239 97.6514L174.243 97.6445C175.749 94.6902 176.513 91.341 176.513 87.5762ZM200.564 87.668C200.564 95.451 198.788 102.429 195.213 108.575L195.211 108.579C191.641 114.654 186.69 119.446 180.377 122.946C174.047 126.456 166.769 128.196 158.572 128.196C150.434 128.196 143.13 126.455 136.684 122.95L136.68 122.948C130.307 119.449 125.295 114.66 121.663 108.586L121.661 108.582C118.023 102.435 116.214 95.4541 116.214 87.668C116.214 79.8834 118.022 72.9039 121.658 66.7578C125.175 60.7557 129.987 55.985 136.08 52.4541L136.674 52.1162C143.122 48.4862 150.43 46.6826 158.572 46.6826C166.772 46.6826 174.053 48.4847 180.383 52.1182C186.697 55.6819 191.648 60.5678 195.216 66.7646H195.215C198.788 72.9098 200.564 79.8865 200.564 87.668Z" fill="#43C6FA"/>
<path d="M25.8701 64.5186C25.8701 59.4288 26.6748 54.6073 28.2832 50.0537L28.6152 49.1465C30.4452 44.3275 33.0982 40.0877 36.5752 36.4277C40.1132 32.7067 44.3837 29.8094 49.3857 27.7354C54.4486 25.6614 60.2129 24.6241 66.6787 24.624C73.0226 24.624 78.6655 25.5392 83.6064 27.3691C88.5474 29.1381 92.1771 30.9078 94.4951 32.6768L104.285 13.1865C101.655 10.8992 97.2281 8.58507 91.0059 6.24414L89.7373 5.77539C83.3322 3.43068 75.7475 2.18559 66.9834 2.03906L65.2148 2.02441C56.3091 2.02445 47.9524 3.61033 40.1445 6.78223C32.3975 9.95423 25.5953 14.3768 19.7393 20.0498L19.1943 20.584C13.5989 26.1407 9.20573 32.6421 6.01465 40.0879L5.71582 40.8047C2.68178 48.2283 1.16504 56.2245 1.16504 64.793C1.16504 73.638 2.81245 81.873 6.10645 89.498C9.40043 97.062 13.9751 103.681 19.8311 109.354C25.687 114.965 32.4885 119.357 40.2354 122.529C47.7402 125.543 55.7893 127.097 64.3818 127.191L65.2148 127.196C74.7308 127.196 82.9053 125.945 89.7373 123.444C96.4148 121.021 101.175 118.627 104.017 116.262L104.285 116.033L94.4951 96.5439C92.1771 98.3129 88.5473 100.112 83.6064 101.942L82.6719 102.264C77.9575 103.818 72.6261 104.596 66.6787 104.596V103.596C72.9269 103.596 78.4491 102.725 83.2598 101.004L84.1641 100.664C88.6043 98.9663 91.8265 97.3227 93.8887 95.749L94.8477 95.0166L105.18 115.584L105.527 116.278L104.941 116.788C101.991 119.354 96.9971 121.873 90.0801 124.383C83.11 126.934 74.8137 128.196 65.2148 128.196C56.1899 128.196 47.7364 126.619 39.8633 123.457L39.8564 123.455C31.9972 120.237 25.0891 115.777 19.1396 110.075L19.1357 110.071C13.1849 104.306 8.53495 97.5796 5.18945 89.8975L5.18848 89.8945C1.83693 82.1363 0.165039 73.7654 0.165039 64.793C0.165042 55.8231 1.80491 47.454 5.09375 39.6973L5.0957 39.6943C8.44055 31.8897 13.0903 25.0987 19.0439 19.3311C24.9938 13.5671 31.9041 9.07536 39.7656 5.85645L39.7676 5.85547C47.7017 2.63222 56.1873 1.02445 65.2148 1.02441C74.8128 1.02441 83.1085 2.28499 90.0781 4.83594L91.3525 5.30664C97.6127 7.66136 102.175 10.0272 104.941 12.4326L105.527 12.9424L94.8477 34.2031L93.8887 33.4717C91.6932 31.7962 88.178 30.0679 83.2695 28.3105L83.2598 28.3076C78.45 26.5262 72.9277 25.624 66.6787 25.624C60.3197 25.6241 54.6875 26.6446 49.7646 28.6611L49.7637 28.6602C44.8856 30.6835 40.7362 33.5041 37.3008 37.1172C33.9172 40.6789 31.3337 44.8044 29.5498 49.502C27.7652 54.2015 26.8701 59.2045 26.8701 64.5186C26.8701 69.8951 27.7661 74.9609 29.5518 79.7227C31.3341 84.4147 33.9144 88.5676 37.2949 92.1885L37.9473 92.8457C41.2534 96.0895 45.19 98.6621 49.7686 100.561C54.6907 102.576 60.3209 103.596 66.6787 103.596V104.596L65.4746 104.583C59.8936 104.47 54.8496 103.563 50.3428 101.861L49.3857 101.484C44.3837 99.4104 40.1132 96.5438 36.5752 92.8838C33.0982 89.1628 30.4452 84.8922 28.6152 80.0732C26.8996 75.4982 25.988 70.6551 25.8809 65.5439L25.8701 64.5186Z" fill="#43C6FA"/>
<circle cx="654" cy="17" r="14.5" stroke="#DA3241"/>
<circle cx="796" cy="17" r="14.5" stroke="#DA3241"/>
<circle cx="1387" cy="17" r="14.5" stroke="#DA3241"/>
</svg>
