<svg width="410" height="47" viewBox="0 0 410 47" fill="none" xmlns="http://www.w3.org/2000/svg">
<path d="M23.92 46H16.0225L0.455 3.1H8.1575L19.9875 37.5175L31.85 3.1H39.5525L23.92 46ZM45.3781 46V19.3175H52.3006V46H45.3781ZM48.9206 11.3225C47.7506 11.3225 46.7431 10.9 45.8981 10.055C45.0748 9.21 44.6631 8.2025 44.6631 7.0325C44.6631 5.8625 45.0748 4.855 45.8981 4.01C46.7431 3.14333 47.7506 2.71 48.9206 2.71C49.7006 2.71 50.4156 2.91583 51.0656 3.3275C51.7373 3.7175 52.2681 4.2375 52.6581 4.8875C53.0698 5.51583 53.2756 6.23083 53.2756 7.0325C53.2756 8.2025 52.8531 9.21 52.0081 10.055C51.1631 10.9 50.134 11.3225 48.9206 11.3225ZM71.0049 18.5375C72.4999 18.5375 73.8866 18.6783 75.1649 18.96C76.4432 19.2417 77.5374 19.5775 78.4474 19.9675C79.3574 20.3575 79.9857 20.6825 80.3324 20.9425L77.7974 25.2325C77.3641 24.8642 76.5841 24.4417 75.4574 23.965C74.3524 23.4883 73.1066 23.25 71.7199 23.25C70.3332 23.25 69.1632 23.4992 68.2099 23.9975C67.2566 24.4958 66.7799 25.2433 66.7799 26.24C66.7799 27.215 67.2782 27.995 68.2749 28.58C69.2932 29.165 70.669 29.6525 72.4024 30.0425C73.8324 30.3675 75.1974 30.8225 76.4974 31.4075C77.7974 31.9708 78.8591 32.7833 79.6824 33.845C80.5274 34.885 80.9499 36.2825 80.9499 38.0375C80.9499 39.7058 80.5924 41.1033 79.8774 42.23C79.184 43.335 78.2524 44.2233 77.0824 44.895C75.9124 45.5667 74.6124 46.0433 73.1824 46.325C71.774 46.6283 70.3549 46.78 68.9249 46.78C67.1699 46.78 65.599 46.6067 64.2124 46.26C62.8474 45.9133 61.7099 45.5125 60.7999 45.0575C59.8899 44.5808 59.2399 44.18 58.8499 43.855L61.3849 39.045C61.9482 39.5867 62.869 40.1608 64.1474 40.7675C65.4257 41.3525 66.8557 41.645 68.4374 41.645C70.1274 41.645 71.4816 41.32 72.4999 40.67C73.5182 40.02 74.0274 39.1533 74.0274 38.07C74.0274 37.2683 73.7782 36.6183 73.2799 36.12C72.8032 35.6217 72.1424 35.2208 71.2974 34.9175C70.4524 34.6142 69.5099 34.3433 68.4699 34.105C67.4949 33.8667 66.509 33.5633 65.5124 33.195C64.5374 32.805 63.6382 32.3067 62.8149 31.7C61.9915 31.0717 61.3307 30.2917 60.8324 29.36C60.334 28.4283 60.0849 27.3342 60.0849 26.0775C60.0849 24.4742 60.594 23.1092 61.6124 21.9825C62.6307 20.8558 63.974 20 65.6424 19.415C67.3107 18.83 69.0982 18.5375 71.0049 18.5375ZM87.6535 46V19.3175H94.576V46H87.6535ZM91.196 11.3225C90.026 11.3225 89.0185 10.9 88.1735 10.055C87.3502 9.21 86.9385 8.2025 86.9385 7.0325C86.9385 5.8625 87.3502 4.855 88.1735 4.01C89.0185 3.14333 90.026 2.71 91.196 2.71C91.976 2.71 92.691 2.91583 93.341 3.3275C94.0127 3.7175 94.5435 4.2375 94.9335 4.8875C95.3452 5.51583 95.551 6.23083 95.551 7.0325C95.551 8.2025 95.1285 9.21 94.2835 10.055C93.4385 10.9 92.4093 11.3225 91.196 11.3225ZM115.393 46.78C112.598 46.78 110.106 46.1733 107.918 44.96C105.751 43.725 104.05 42.0567 102.815 39.955C101.58 37.8317 100.963 35.4267 100.963 32.74C100.963 30.0533 101.58 27.6375 102.815 25.4925C104.05 23.3475 105.751 21.6575 107.918 20.4225C110.106 19.1658 112.598 18.5375 115.393 18.5375C118.188 18.5375 120.658 19.1658 122.803 20.4225C124.948 21.6575 126.627 23.3475 127.84 25.4925C129.075 27.6375 129.693 30.0533 129.693 32.74C129.693 35.4267 129.075 37.8317 127.84 39.955C126.627 42.0567 124.948 43.725 122.803 44.96C120.658 46.1733 118.188 46.78 115.393 46.78ZM115.393 40.93C116.953 40.93 118.307 40.5725 119.455 39.8575C120.604 39.1425 121.492 38.1675 122.12 36.9325C122.749 35.6975 123.063 34.2892 123.063 32.7075C123.063 31.1258 122.749 29.7175 122.12 28.4825C121.492 27.2258 120.604 26.2292 119.455 25.4925C118.307 24.7558 116.953 24.3875 115.393 24.3875C113.833 24.3875 112.468 24.7558 111.298 25.4925C110.149 26.2292 109.25 27.2258 108.6 28.4825C107.972 29.7175 107.658 31.1258 107.658 32.7075C107.658 34.2892 107.972 35.6975 108.6 36.9325C109.25 38.1675 110.149 39.1425 111.298 39.8575C112.468 40.5725 113.833 40.93 115.393 40.93ZM151.524 18.5375C153.322 18.5375 155.066 18.9058 156.756 19.6425C158.446 20.3792 159.833 21.56 160.916 23.185C162.021 24.7883 162.574 26.8792 162.574 29.4575V46H155.586V30.725C155.586 28.32 155.012 26.5542 153.864 25.4275C152.737 24.2792 151.274 23.705 149.476 23.705C148.284 23.705 147.147 24.0408 146.064 24.7125C144.98 25.3842 144.092 26.2942 143.399 27.4425C142.727 28.5908 142.391 29.9125 142.391 31.4075V46H135.436V19.3175H142.391V23.8025C142.586 23.0658 143.106 22.2967 143.951 21.495C144.818 20.6717 145.912 19.9783 147.234 19.415C148.555 18.83 149.985 18.5375 151.524 18.5375ZM175.529 38.564C175.529 37.4053 175.741 36.386 176.167 35.506C176.607 34.6113 177.171 33.8413 177.861 33.196C178.55 32.536 179.269 31.986 180.017 31.546C180.779 31.0913 181.483 30.7393 182.129 30.49C182.774 30.226 183.273 30.0427 183.625 29.94C183.346 29.7493 183.001 29.4413 182.591 29.016C182.18 28.5907 181.777 28.0773 181.381 27.476C180.985 26.86 180.655 26.1853 180.391 25.452C180.127 24.7187 179.995 23.956 179.995 23.164C179.995 21.932 180.332 20.81 181.007 19.798C181.681 18.786 182.635 17.972 183.867 17.356C185.113 16.74 186.595 16.432 188.311 16.432C189.997 16.432 191.42 16.7327 192.579 17.334C193.752 17.9207 194.639 18.7273 195.241 19.754C195.842 20.766 196.143 21.9247 196.143 23.23C196.143 24.3447 195.893 25.3347 195.395 26.2C194.911 27.0507 194.309 27.7913 193.591 28.422C192.872 29.038 192.161 29.5513 191.457 29.962C190.753 30.3727 190.188 30.6807 189.763 30.886L195.351 36.936C195.703 36.5987 196.194 36.056 196.825 35.308C197.455 34.5453 198.093 33.658 198.739 32.646L201.841 35.374C201.635 35.726 201.335 36.1807 200.939 36.738C200.543 37.2807 200.11 37.8307 199.641 38.388C199.171 38.9307 198.731 39.3853 198.321 39.752L204.239 46H198.365L194.889 42.282C194.126 42.9713 193.246 43.646 192.249 44.306C191.251 44.9513 190.115 45.4867 188.839 45.912C187.577 46.3227 186.162 46.528 184.593 46.528C182.921 46.528 181.395 46.2127 180.017 45.582C178.638 44.9367 177.545 44.02 176.739 42.832C175.932 41.644 175.529 40.2213 175.529 38.564ZM185.957 32.756C185.737 32.8293 185.414 32.9613 184.989 33.152C184.578 33.328 184.123 33.5627 183.625 33.856C183.126 34.1347 182.657 34.4867 182.217 34.912C181.777 35.3227 181.41 35.7993 181.117 36.342C180.823 36.8847 180.677 37.5007 180.677 38.19C180.677 39.0847 180.889 39.8327 181.315 40.434C181.74 41.0353 182.305 41.4827 183.009 41.776C183.727 42.0693 184.505 42.216 185.341 42.216C186.25 42.216 187.13 42.0547 187.981 41.732C188.846 41.4093 189.623 41.0207 190.313 40.566C191.017 40.0967 191.574 39.642 191.985 39.202L185.957 32.756ZM188.245 20.062C187.453 20.062 186.778 20.216 186.221 20.524C185.663 20.832 185.238 21.228 184.945 21.712C184.651 22.196 184.505 22.6947 184.505 23.208C184.505 23.7507 184.637 24.308 184.901 24.88C185.179 25.452 185.495 25.9873 185.847 26.486C186.213 26.9847 186.543 27.4027 186.837 27.74C187.145 28.0627 187.321 28.246 187.365 28.29C187.629 28.2167 188.01 28.0553 188.509 27.806C189.007 27.5567 189.513 27.2267 190.027 26.816C190.555 26.3907 191.002 25.8847 191.369 25.298C191.75 24.6967 191.941 24 191.941 23.208C191.941 22.3133 191.603 21.5653 190.929 20.964C190.254 20.3627 189.359 20.062 188.245 20.062ZM256.34 3.1V46H249.515V16.7825L249.84 11.29L248.54 17.465L239.147 43.27H232.42L223.06 17.465L221.76 11.29L222.085 16.7825V46H215.26V3.1H224.587L235.312 35.21L235.8 37.7775L236.255 35.21L247.045 3.1H256.34ZM265.451 46V19.3175H272.374V46H265.451ZM268.994 11.3225C267.824 11.3225 266.816 10.9 265.971 10.055C265.148 9.21 264.736 8.2025 264.736 7.0325C264.736 5.8625 265.148 4.855 265.971 4.01C266.816 3.14333 267.824 2.71 268.994 2.71C269.774 2.71 270.489 2.91583 271.139 3.3275C271.81 3.7175 272.341 4.2375 272.731 4.8875C273.143 5.51583 273.349 6.23083 273.349 7.0325C273.349 8.2025 272.926 9.21 272.081 10.055C271.236 10.9 270.207 11.3225 268.994 11.3225ZM291.078 18.5375C292.573 18.5375 293.96 18.6783 295.238 18.96C296.516 19.2417 297.61 19.5775 298.52 19.9675C299.43 20.3575 300.059 20.6825 300.405 20.9425L297.87 25.2325C297.437 24.8642 296.657 24.4417 295.53 23.965C294.425 23.4883 293.18 23.25 291.793 23.25C290.406 23.25 289.236 23.4992 288.283 23.9975C287.33 24.4958 286.853 25.2433 286.853 26.24C286.853 27.215 287.351 27.995 288.348 28.58C289.366 29.165 290.742 29.6525 292.475 30.0425C293.905 30.3675 295.27 30.8225 296.57 31.4075C297.87 31.9708 298.932 32.7833 299.755 33.845C300.6 34.885 301.023 36.2825 301.023 38.0375C301.023 39.7058 300.665 41.1033 299.95 42.23C299.257 43.335 298.325 44.2233 297.155 44.895C295.985 45.5667 294.685 46.0433 293.255 46.325C291.847 46.6283 290.428 46.78 288.998 46.78C287.243 46.78 285.672 46.6067 284.285 46.26C282.92 45.9133 281.783 45.5125 280.873 45.0575C279.963 44.5808 279.313 44.18 278.923 43.855L281.458 39.045C282.021 39.5867 282.942 40.1608 284.22 40.7675C285.499 41.3525 286.929 41.645 288.51 41.645C290.2 41.645 291.555 41.32 292.573 40.67C293.591 40.02 294.1 39.1533 294.1 38.07C294.1 37.2683 293.851 36.6183 293.353 36.12C292.876 35.6217 292.215 35.2208 291.37 34.9175C290.525 34.6142 289.583 34.3433 288.543 34.105C287.568 33.8667 286.582 33.5633 285.585 33.195C284.61 32.805 283.711 32.3067 282.888 31.7C282.065 31.0717 281.404 30.2917 280.905 29.36C280.407 28.4283 280.158 27.3342 280.158 26.0775C280.158 24.4742 280.667 23.1092 281.685 21.9825C282.704 20.8558 284.047 20 285.715 19.415C287.384 18.83 289.171 18.5375 291.078 18.5375ZM317.802 18.5375C319.297 18.5375 320.683 18.6783 321.962 18.96C323.24 19.2417 324.334 19.5775 325.244 19.9675C326.154 20.3575 326.782 20.6825 327.129 20.9425L324.594 25.2325C324.161 24.8642 323.381 24.4417 322.254 23.965C321.149 23.4883 319.903 23.25 318.517 23.25C317.13 23.25 315.96 23.4992 315.007 23.9975C314.053 24.4958 313.577 25.2433 313.577 26.24C313.577 27.215 314.075 27.995 315.072 28.58C316.09 29.165 317.466 29.6525 319.199 30.0425C320.629 30.3675 321.994 30.8225 323.294 31.4075C324.594 31.9708 325.656 32.7833 326.479 33.845C327.324 34.885 327.747 36.2825 327.747 38.0375C327.747 39.7058 327.389 41.1033 326.674 42.23C325.981 43.335 325.049 44.2233 323.879 44.895C322.709 45.5667 321.409 46.0433 319.979 46.325C318.571 46.6283 317.152 46.78 315.722 46.78C313.967 46.78 312.396 46.6067 311.009 46.26C309.644 45.9133 308.507 45.5125 307.597 45.0575C306.687 44.5808 306.037 44.18 305.647 43.855L308.182 39.045C308.745 39.5867 309.666 40.1608 310.944 40.7675C312.222 41.3525 313.652 41.645 315.234 41.645C316.924 41.645 318.278 41.32 319.297 40.67C320.315 40.02 320.824 39.1533 320.824 38.07C320.824 37.2683 320.575 36.6183 320.077 36.12C319.6 35.6217 318.939 35.2208 318.094 34.9175C317.249 34.6142 316.307 34.3433 315.267 34.105C314.292 33.8667 313.306 33.5633 312.309 33.195C311.334 32.805 310.435 32.3067 309.612 31.7C308.788 31.0717 308.127 30.2917 307.629 29.36C307.131 28.4283 306.882 27.3342 306.882 26.0775C306.882 24.4742 307.391 23.1092 308.409 21.9825C309.427 20.8558 310.771 20 312.439 19.415C314.107 18.83 315.895 18.5375 317.802 18.5375ZM334.45 46V19.3175H341.373V46H334.45ZM337.993 11.3225C336.823 11.3225 335.815 10.9 334.97 10.055C334.147 9.21 333.735 8.2025 333.735 7.0325C333.735 5.8625 334.147 4.855 334.97 4.01C335.815 3.14333 336.823 2.71 337.993 2.71C338.773 2.71 339.488 2.91583 340.138 3.3275C340.809 3.7175 341.34 4.2375 341.73 4.8875C342.142 5.51583 342.348 6.23083 342.348 7.0325C342.348 8.2025 341.925 9.21 341.08 10.055C340.235 10.9 339.206 11.3225 337.993 11.3225ZM362.189 46.78C359.394 46.78 356.903 46.1733 354.714 44.96C352.548 43.725 350.847 42.0567 349.612 39.955C348.377 37.8317 347.759 35.4267 347.759 32.74C347.759 30.0533 348.377 27.6375 349.612 25.4925C350.847 23.3475 352.548 21.6575 354.714 20.4225C356.903 19.1658 359.394 18.5375 362.189 18.5375C364.984 18.5375 367.454 19.1658 369.599 20.4225C371.744 21.6575 373.424 23.3475 374.637 25.4925C375.872 27.6375 376.489 30.0533 376.489 32.74C376.489 35.4267 375.872 37.8317 374.637 39.955C373.424 42.0567 371.744 43.725 369.599 44.96C367.454 46.1733 364.984 46.78 362.189 46.78ZM362.189 40.93C363.749 40.93 365.104 40.5725 366.252 39.8575C367.4 39.1425 368.289 38.1675 368.917 36.9325C369.545 35.6975 369.859 34.2892 369.859 32.7075C369.859 31.1258 369.545 29.7175 368.917 28.4825C368.289 27.2258 367.4 26.2292 366.252 25.4925C365.104 24.7558 363.749 24.3875 362.189 24.3875C360.629 24.3875 359.264 24.7558 358.094 25.4925C356.946 26.2292 356.047 27.2258 355.397 28.4825C354.769 29.7175 354.454 31.1258 354.454 32.7075C354.454 34.2892 354.769 35.6975 355.397 36.9325C356.047 38.1675 356.946 39.1425 358.094 39.8575C359.264 40.5725 360.629 40.93 362.189 40.93ZM398.32 18.5375C400.119 18.5375 401.863 18.9058 403.553 19.6425C405.243 20.3792 406.629 21.56 407.713 23.185C408.818 24.7883 409.37 26.8792 409.37 29.4575V46H402.383V30.725C402.383 28.32 401.809 26.5542 400.66 25.4275C399.534 24.2792 398.071 23.705 396.273 23.705C395.081 23.705 393.944 24.0408 392.86 24.7125C391.777 25.3842 390.889 26.2942 390.195 27.4425C389.524 28.5908 389.188 29.9125 389.188 31.4075V46H382.233V19.3175H389.188V23.8025C389.383 23.0658 389.903 22.2967 390.748 21.495C391.614 20.6717 392.709 19.9783 394.03 19.415C395.352 18.83 396.782 18.5375 398.32 18.5375Z" fill="#262626"/>
<circle cx="49" cy="7" r="4.5" fill="#DA3241"/>
<circle cx="91.5" cy="7" r="4.5" fill="#DA3241"/>
<circle cx="269" cy="7" r="4.5" fill="#DA3241"/>
<circle cx="338" cy="7" r="4.5" fill="#DA3241"/>
</svg>
